<mxfile host="app.diagrams.net" modified="2020-08-12T15:05:50.826Z" agent="5.0 (Macintosh; Intel Mac OS X 10_14_6) AppleWebKit/537.36 (KHTML, like Gecko) Chrome/84.0.4147.125 Safari/537.36 Edg/84.0.522.59" etag="7dqb1H-CzbEC6SePkSul" version="13.6.2" type="github">
  <diagram id="ZtYG9Sx7cP-IKcmzflR8" name="Page-1">
    <mxGraphModel dx="996" dy="693" grid="1" gridSize="10" guides="1" tooltips="1" connect="1" arrows="1" fold="1" page="1" pageScale="1" pageWidth="850" pageHeight="1100" math="0" shadow="0">
      <root>
        <mxCell id="0" />
        <mxCell id="1" parent="0" />
        <mxCell id="1NO3vYuAgstss5tLDtMF-31" value="" style="rounded=1;whiteSpace=wrap;html=1;strokeColor=#666666;fontColor=#333333;fillColor=none;dashed=1;" vertex="1" parent="1">
          <mxGeometry x="675" y="410" width="175" height="450" as="geometry" />
        </mxCell>
        <mxCell id="GJgcs_XlC3L1bi6ihaC3-7" value="" style="endArrow=classic;html=1;exitX=1;exitY=0.5;exitDx=0;exitDy=0;entryX=0;entryY=0.5;entryDx=0;entryDy=0;" parent="1" target="GJgcs_XlC3L1bi6ihaC3-4" edge="1">
          <mxGeometry width="50" height="50" relative="1" as="geometry">
            <mxPoint x="145" y="80" as="sourcePoint" />
            <mxPoint x="205" y="80" as="targetPoint" />
          </mxGeometry>
        </mxCell>
        <mxCell id="GJgcs_XlC3L1bi6ihaC3-8" value="" style="group" parent="1" vertex="1" connectable="0">
          <mxGeometry x="185" y="40" width="140" height="80" as="geometry" />
        </mxCell>
        <mxCell id="GJgcs_XlC3L1bi6ihaC3-4" value="" style="rounded=0;whiteSpace=wrap;html=1;" parent="GJgcs_XlC3L1bi6ihaC3-8" vertex="1">
          <mxGeometry width="140" height="80" as="geometry" />
        </mxCell>
        <mxCell id="GJgcs_XlC3L1bi6ihaC3-5" value="Event info arrives via SNS" style="text;html=1;strokeColor=none;fillColor=none;align=center;verticalAlign=middle;whiteSpace=wrap;rounded=0;" parent="GJgcs_XlC3L1bi6ihaC3-8" vertex="1">
          <mxGeometry x="50" y="30" width="40" height="20" as="geometry" />
        </mxCell>
        <mxCell id="GJgcs_XlC3L1bi6ihaC3-9" value="" style="group" parent="1" vertex="1" connectable="0">
          <mxGeometry x="470" y="41" width="140" height="80" as="geometry" />
        </mxCell>
        <mxCell id="GJgcs_XlC3L1bi6ihaC3-10" value="" style="rounded=0;whiteSpace=wrap;html=1;" parent="GJgcs_XlC3L1bi6ihaC3-9" vertex="1">
          <mxGeometry width="140" height="80" as="geometry" />
        </mxCell>
        <mxCell id="GJgcs_XlC3L1bi6ihaC3-11" value="Write event info to DB" style="text;html=1;strokeColor=none;fillColor=none;align=center;verticalAlign=middle;whiteSpace=wrap;rounded=0;" parent="GJgcs_XlC3L1bi6ihaC3-9" vertex="1">
          <mxGeometry x="50" y="30" width="40" height="20" as="geometry" />
        </mxCell>
        <mxCell id="GJgcs_XlC3L1bi6ihaC3-13" value="" style="endArrow=classic;html=1;exitX=0.5;exitY=1;exitDx=0;exitDy=0;dashed=1;entryX=0.967;entryY=0.125;entryDx=0;entryDy=0;entryPerimeter=0;" parent="1" source="GJgcs_XlC3L1bi6ihaC3-10" target="GJgcs_XlC3L1bi6ihaC3-14" edge="1">
          <mxGeometry width="50" height="50" relative="1" as="geometry">
            <mxPoint x="405" y="540" as="sourcePoint" />
            <mxPoint x="435" y="330" as="targetPoint" />
            <Array as="points">
              <mxPoint x="540" y="140" />
              <mxPoint x="540" y="260" />
              <mxPoint x="463" y="260" />
            </Array>
          </mxGeometry>
        </mxCell>
        <mxCell id="GJgcs_XlC3L1bi6ihaC3-16" value="" style="group" parent="1" vertex="1" connectable="0">
          <mxGeometry x="405" y="300" width="60" height="80" as="geometry" />
        </mxCell>
        <mxCell id="GJgcs_XlC3L1bi6ihaC3-14" value="" style="shape=cylinder2;whiteSpace=wrap;html=1;boundedLbl=1;backgroundOutline=1;size=15;" parent="GJgcs_XlC3L1bi6ihaC3-16" vertex="1">
          <mxGeometry width="60" height="80" as="geometry" />
        </mxCell>
        <mxCell id="GJgcs_XlC3L1bi6ihaC3-15" value="Aurora DB" style="text;html=1;strokeColor=none;fillColor=none;align=center;verticalAlign=middle;whiteSpace=wrap;rounded=0;" parent="GJgcs_XlC3L1bi6ihaC3-16" vertex="1">
          <mxGeometry x="10" y="40" width="40" height="20" as="geometry" />
        </mxCell>
        <mxCell id="Xdjex0H8esJp2T3BDwvE-1" value="" style="endArrow=classic;html=1;exitX=1;exitY=0.5;exitDx=0;exitDy=0;entryX=0;entryY=0.5;entryDx=0;entryDy=0;" parent="1" source="GJgcs_XlC3L1bi6ihaC3-10" target="1NO3vYuAgstss5tLDtMF-5" edge="1">
          <mxGeometry width="50" height="50" relative="1" as="geometry">
            <mxPoint x="535" y="79.5" as="sourcePoint" />
            <mxPoint x="540" y="110" as="targetPoint" />
          </mxGeometry>
        </mxCell>
        <mxCell id="Xdjex0H8esJp2T3BDwvE-2" value="" style="group" parent="1" vertex="1" connectable="0">
          <mxGeometry x="575" y="159" width="140" height="80" as="geometry" />
        </mxCell>
        <mxCell id="Xdjex0H8esJp2T3BDwvE-3" value="" style="rounded=0;whiteSpace=wrap;html=1;" parent="Xdjex0H8esJp2T3BDwvE-2" vertex="1">
          <mxGeometry width="140" height="80" as="geometry" />
        </mxCell>
        <mxCell id="Xdjex0H8esJp2T3BDwvE-4" value="Write event.xml to S3" style="text;html=1;strokeColor=none;fillColor=none;align=center;verticalAlign=middle;whiteSpace=wrap;rounded=0;" parent="Xdjex0H8esJp2T3BDwvE-2" vertex="1">
          <mxGeometry x="50" y="30" width="40" height="20" as="geometry" />
        </mxCell>
        <mxCell id="Xdjex0H8esJp2T3BDwvE-5" value="" style="group" parent="1" vertex="1" connectable="0">
          <mxGeometry x="505" y="310" width="60" height="80" as="geometry" />
        </mxCell>
        <mxCell id="Xdjex0H8esJp2T3BDwvE-6" value="" style="shape=cylinder2;whiteSpace=wrap;html=1;boundedLbl=1;backgroundOutline=1;size=15;" parent="Xdjex0H8esJp2T3BDwvE-5" vertex="1">
          <mxGeometry width="60" height="80" as="geometry" />
        </mxCell>
        <mxCell id="Xdjex0H8esJp2T3BDwvE-7" value="Amazon S3" style="text;html=1;strokeColor=none;fillColor=none;align=center;verticalAlign=middle;whiteSpace=wrap;rounded=0;" parent="Xdjex0H8esJp2T3BDwvE-5" vertex="1">
          <mxGeometry x="10" y="40" width="40" height="20" as="geometry" />
        </mxCell>
        <mxCell id="Xdjex0H8esJp2T3BDwvE-8" value="" style="endArrow=classic;html=1;exitX=0.5;exitY=1;exitDx=0;exitDy=0;entryX=0.567;entryY=0.013;entryDx=0;entryDy=0;entryPerimeter=0;dashed=1;" parent="1" source="Xdjex0H8esJp2T3BDwvE-3" target="Xdjex0H8esJp2T3BDwvE-6" edge="1">
          <mxGeometry width="50" height="50" relative="1" as="geometry">
            <mxPoint x="644.5" y="280" as="sourcePoint" />
            <mxPoint x="644.5" y="320" as="targetPoint" />
            <Array as="points">
              <mxPoint x="645" y="290" />
              <mxPoint x="539" y="290" />
            </Array>
          </mxGeometry>
        </mxCell>
        <mxCell id="Xdjex0H8esJp2T3BDwvE-9" value="" style="endArrow=classic;html=1;exitX=1;exitY=0.5;exitDx=0;exitDy=0;entryX=0.5;entryY=0;entryDx=0;entryDy=0;" parent="1" source="Xdjex0H8esJp2T3BDwvE-3" target="Xdjex0H8esJp2T3BDwvE-11" edge="1">
          <mxGeometry width="50" height="50" relative="1" as="geometry">
            <mxPoint x="405" y="560" as="sourcePoint" />
            <mxPoint x="765" y="300" as="targetPoint" />
            <Array as="points">
              <mxPoint x="765" y="199" />
            </Array>
          </mxGeometry>
        </mxCell>
        <mxCell id="Xdjex0H8esJp2T3BDwvE-10" value="" style="group" parent="1" vertex="1" connectable="0">
          <mxGeometry x="695" y="310" width="140" height="80" as="geometry" />
        </mxCell>
        <mxCell id="Xdjex0H8esJp2T3BDwvE-11" value="" style="rounded=0;whiteSpace=wrap;html=1;" parent="Xdjex0H8esJp2T3BDwvE-10" vertex="1">
          <mxGeometry width="140" height="80" as="geometry" />
        </mxCell>
        <mxCell id="Xdjex0H8esJp2T3BDwvE-12" value="Start compute box with eventid&lt;br&gt;" style="text;html=1;strokeColor=none;fillColor=none;align=center;verticalAlign=middle;whiteSpace=wrap;rounded=0;" parent="Xdjex0H8esJp2T3BDwvE-10" vertex="1">
          <mxGeometry x="50" y="30" width="40" height="20" as="geometry" />
        </mxCell>
        <mxCell id="Xdjex0H8esJp2T3BDwvE-15" value="" style="group;rounded=1;glass=1;" parent="1" vertex="1" connectable="0">
          <mxGeometry x="695" y="550" width="140" height="80" as="geometry" />
        </mxCell>
        <mxCell id="Xdjex0H8esJp2T3BDwvE-16" value="" style="rounded=0;whiteSpace=wrap;html=1;" parent="Xdjex0H8esJp2T3BDwvE-15" vertex="1">
          <mxGeometry width="140" height="80" as="geometry" />
        </mxCell>
        <mxCell id="Xdjex0H8esJp2T3BDwvE-17" value="Run ShakeMap" style="text;html=1;strokeColor=none;fillColor=none;align=center;verticalAlign=middle;whiteSpace=wrap;rounded=0;" parent="Xdjex0H8esJp2T3BDwvE-15" vertex="1">
          <mxGeometry x="50" y="30" width="40" height="20" as="geometry" />
        </mxCell>
        <mxCell id="Xdjex0H8esJp2T3BDwvE-18" value="" style="endArrow=classic;html=1;exitX=1;exitY=0.375;exitDx=0;exitDy=0;exitPerimeter=0;entryX=0;entryY=0.5;entryDx=0;entryDy=0;dashed=1;" parent="1" source="Xdjex0H8esJp2T3BDwvE-6" target="Xdjex0H8esJp2T3BDwvE-21" edge="1">
          <mxGeometry width="50" height="50" relative="1" as="geometry">
            <mxPoint x="635" y="485" as="sourcePoint" />
            <mxPoint x="685" y="435" as="targetPoint" />
            <Array as="points">
              <mxPoint x="635" y="340" />
              <mxPoint x="635" y="470" />
            </Array>
          </mxGeometry>
        </mxCell>
        <mxCell id="Xdjex0H8esJp2T3BDwvE-19" value="" style="endArrow=classic;html=1;entryX=0.5;entryY=0;entryDx=0;entryDy=0;exitX=0.5;exitY=1;exitDx=0;exitDy=0;" parent="1" source="Xdjex0H8esJp2T3BDwvE-11" target="Xdjex0H8esJp2T3BDwvE-21" edge="1">
          <mxGeometry width="50" height="50" relative="1" as="geometry">
            <mxPoint x="745" y="440" as="sourcePoint" />
            <mxPoint x="795" y="390" as="targetPoint" />
          </mxGeometry>
        </mxCell>
        <mxCell id="Xdjex0H8esJp2T3BDwvE-20" value="" style="group;rounded=1;glass=1;" parent="1" vertex="1" connectable="0">
          <mxGeometry x="695" y="430" width="150" height="350" as="geometry" />
        </mxCell>
        <mxCell id="Xdjex0H8esJp2T3BDwvE-21" value="" style="rounded=0;whiteSpace=wrap;html=1;" parent="Xdjex0H8esJp2T3BDwvE-20" vertex="1">
          <mxGeometry width="140" height="80" as="geometry" />
        </mxCell>
        <mxCell id="Xdjex0H8esJp2T3BDwvE-22" value="Retrieve input from S3" style="text;html=1;strokeColor=none;fillColor=none;align=center;verticalAlign=middle;whiteSpace=wrap;rounded=0;" parent="Xdjex0H8esJp2T3BDwvE-20" vertex="1">
          <mxGeometry x="50" y="30" width="40" height="20" as="geometry" />
        </mxCell>
        <mxCell id="Xdjex0H8esJp2T3BDwvE-23" value="" style="endArrow=classic;html=1;entryX=0.5;entryY=0;entryDx=0;entryDy=0;exitX=0.5;exitY=1;exitDx=0;exitDy=0;" parent="1" source="Xdjex0H8esJp2T3BDwvE-21" target="Xdjex0H8esJp2T3BDwvE-16" edge="1">
          <mxGeometry width="50" height="50" relative="1" as="geometry">
            <mxPoint x="764.94" y="530" as="sourcePoint" />
            <mxPoint x="755" y="570" as="targetPoint" />
          </mxGeometry>
        </mxCell>
        <mxCell id="Xdjex0H8esJp2T3BDwvE-24" value="" style="group;rounded=1;glass=1;" parent="1" vertex="1" connectable="0">
          <mxGeometry x="695" y="660" width="140" height="80" as="geometry" />
        </mxCell>
        <mxCell id="Xdjex0H8esJp2T3BDwvE-25" value="" style="rounded=0;whiteSpace=wrap;html=1;" parent="Xdjex0H8esJp2T3BDwvE-24" vertex="1">
          <mxGeometry width="140" height="80" as="geometry" />
        </mxCell>
        <mxCell id="Xdjex0H8esJp2T3BDwvE-26" value="Write ShakeMap output to S3" style="text;html=1;strokeColor=none;fillColor=none;align=center;verticalAlign=middle;whiteSpace=wrap;rounded=0;" parent="Xdjex0H8esJp2T3BDwvE-24" vertex="1">
          <mxGeometry x="50" y="30" width="40" height="20" as="geometry" />
        </mxCell>
        <mxCell id="Xdjex0H8esJp2T3BDwvE-27" value="" style="endArrow=classic;html=1;entryX=0.5;entryY=0;entryDx=0;entryDy=0;exitX=0.5;exitY=1;exitDx=0;exitDy=0;" parent="1" source="Xdjex0H8esJp2T3BDwvE-16" target="Xdjex0H8esJp2T3BDwvE-25" edge="1">
          <mxGeometry width="50" height="50" relative="1" as="geometry">
            <mxPoint x="405" y="560" as="sourcePoint" />
            <mxPoint x="455" y="510" as="targetPoint" />
          </mxGeometry>
        </mxCell>
        <mxCell id="Xdjex0H8esJp2T3BDwvE-28" value="" style="endArrow=classic;html=1;exitX=0;exitY=0.5;exitDx=0;exitDy=0;entryX=0.65;entryY=0.988;entryDx=0;entryDy=0;entryPerimeter=0;dashed=1;" parent="1" source="Xdjex0H8esJp2T3BDwvE-25" target="Xdjex0H8esJp2T3BDwvE-6" edge="1">
          <mxGeometry width="50" height="50" relative="1" as="geometry">
            <mxPoint x="495" y="629" as="sourcePoint" />
            <mxPoint x="535" y="400" as="targetPoint" />
            <Array as="points">
              <mxPoint x="645" y="700" />
              <mxPoint x="645" y="530" />
              <mxPoint x="545" y="530" />
            </Array>
          </mxGeometry>
        </mxCell>
        <mxCell id="Xdjex0H8esJp2T3BDwvE-37" value="" style="group" parent="1" vertex="1" connectable="0">
          <mxGeometry x="25" y="40" width="120" height="80" as="geometry" />
        </mxCell>
        <mxCell id="Xdjex0H8esJp2T3BDwvE-35" value="" style="ellipse;whiteSpace=wrap;html=1;rounded=1;glass=1;" parent="Xdjex0H8esJp2T3BDwvE-37" vertex="1">
          <mxGeometry width="120" height="80" as="geometry" />
        </mxCell>
        <mxCell id="Xdjex0H8esJp2T3BDwvE-36" value="New Earthquake" style="text;html=1;strokeColor=none;fillColor=none;align=center;verticalAlign=middle;whiteSpace=wrap;rounded=0;glass=1;" parent="Xdjex0H8esJp2T3BDwvE-37" vertex="1">
          <mxGeometry x="40" y="30" width="40" height="20" as="geometry" />
        </mxCell>
        <mxCell id="Xdjex0H8esJp2T3BDwvE-38" value="" style="group" parent="1" vertex="1" connectable="0">
          <mxGeometry x="702.5" y="870" width="120" height="80" as="geometry" />
        </mxCell>
        <mxCell id="Xdjex0H8esJp2T3BDwvE-39" value="" style="ellipse;whiteSpace=wrap;html=1;rounded=1;glass=1;" parent="Xdjex0H8esJp2T3BDwvE-38" vertex="1">
          <mxGeometry width="120" height="80" as="geometry" />
        </mxCell>
        <mxCell id="Xdjex0H8esJp2T3BDwvE-40" value="End" style="text;html=1;strokeColor=none;fillColor=none;align=center;verticalAlign=middle;whiteSpace=wrap;rounded=0;glass=1;" parent="Xdjex0H8esJp2T3BDwvE-38" vertex="1">
          <mxGeometry x="40" y="30" width="40" height="20" as="geometry" />
        </mxCell>
        <mxCell id="Xdjex0H8esJp2T3BDwvE-41" value="" style="group" parent="1" vertex="1" connectable="0">
          <mxGeometry x="25" y="360" width="120" height="80" as="geometry" />
        </mxCell>
        <mxCell id="Xdjex0H8esJp2T3BDwvE-42" value="" style="ellipse;whiteSpace=wrap;html=1;rounded=1;glass=1;" parent="Xdjex0H8esJp2T3BDwvE-41" vertex="1">
          <mxGeometry width="120" height="80" as="geometry" />
        </mxCell>
        <mxCell id="Xdjex0H8esJp2T3BDwvE-43" value="Timed Cloudwatch Event" style="text;html=1;strokeColor=none;fillColor=none;align=center;verticalAlign=middle;whiteSpace=wrap;rounded=0;glass=1;" parent="Xdjex0H8esJp2T3BDwvE-41" vertex="1">
          <mxGeometry x="40" y="30" width="40" height="20" as="geometry" />
        </mxCell>
        <mxCell id="Xdjex0H8esJp2T3BDwvE-44" value="" style="group" parent="1" vertex="1" connectable="0">
          <mxGeometry x="175" y="360" width="140" height="80" as="geometry" />
        </mxCell>
        <mxCell id="Xdjex0H8esJp2T3BDwvE-45" value="" style="rounded=0;whiteSpace=wrap;html=1;" parent="Xdjex0H8esJp2T3BDwvE-44" vertex="1">
          <mxGeometry width="140" height="80" as="geometry" />
        </mxCell>
        <mxCell id="Xdjex0H8esJp2T3BDwvE-46" value="Check for running events in DB" style="text;html=1;strokeColor=none;fillColor=none;align=center;verticalAlign=middle;whiteSpace=wrap;rounded=0;" parent="Xdjex0H8esJp2T3BDwvE-44" vertex="1">
          <mxGeometry x="50" y="30" width="40" height="20" as="geometry" />
        </mxCell>
        <mxCell id="Xdjex0H8esJp2T3BDwvE-47" value="" style="endArrow=classic;html=1;exitX=1;exitY=0.5;exitDx=0;exitDy=0;entryX=0;entryY=0.5;entryDx=0;entryDy=0;" parent="1" source="Xdjex0H8esJp2T3BDwvE-42" target="Xdjex0H8esJp2T3BDwvE-45" edge="1">
          <mxGeometry width="50" height="50" relative="1" as="geometry">
            <mxPoint x="155" y="399.5" as="sourcePoint" />
            <mxPoint x="165" y="400" as="targetPoint" />
          </mxGeometry>
        </mxCell>
        <mxCell id="Xdjex0H8esJp2T3BDwvE-48" value="" style="endArrow=classic;html=1;exitX=-0.05;exitY=0.45;exitDx=0;exitDy=0;exitPerimeter=0;entryX=0.5;entryY=0;entryDx=0;entryDy=0;dashed=1;" parent="1" source="GJgcs_XlC3L1bi6ihaC3-14" target="Xdjex0H8esJp2T3BDwvE-45" edge="1">
          <mxGeometry width="50" height="50" relative="1" as="geometry">
            <mxPoint x="395" y="330" as="sourcePoint" />
            <mxPoint x="225" y="340" as="targetPoint" />
            <Array as="points">
              <mxPoint x="245" y="336" />
            </Array>
          </mxGeometry>
        </mxCell>
        <mxCell id="Xdjex0H8esJp2T3BDwvE-52" value="" style="group" parent="1" vertex="1" connectable="0">
          <mxGeometry x="365" y="480" width="90" height="90" as="geometry" />
        </mxCell>
        <mxCell id="Xdjex0H8esJp2T3BDwvE-49" value="" style="rhombus;whiteSpace=wrap;html=1;rounded=1;glass=1;" parent="Xdjex0H8esJp2T3BDwvE-52" vertex="1">
          <mxGeometry width="90" height="90" as="geometry" />
        </mxCell>
        <mxCell id="Xdjex0H8esJp2T3BDwvE-50" value="Any running events?" style="text;html=1;strokeColor=none;fillColor=none;align=center;verticalAlign=middle;whiteSpace=wrap;rounded=0;glass=1;" parent="Xdjex0H8esJp2T3BDwvE-52" vertex="1">
          <mxGeometry x="25" y="30" width="40" height="20" as="geometry" />
        </mxCell>
        <mxCell id="Xdjex0H8esJp2T3BDwvE-53" value="" style="endArrow=classic;html=1;exitX=1;exitY=0.5;exitDx=0;exitDy=0;entryX=0.5;entryY=0;entryDx=0;entryDy=0;" parent="1" source="Xdjex0H8esJp2T3BDwvE-45" target="Xdjex0H8esJp2T3BDwvE-49" edge="1">
          <mxGeometry width="50" height="50" relative="1" as="geometry">
            <mxPoint x="513.5" y="430" as="sourcePoint" />
            <mxPoint x="356.5" y="454" as="targetPoint" />
            <Array as="points">
              <mxPoint x="410" y="400" />
            </Array>
          </mxGeometry>
        </mxCell>
        <mxCell id="Xdjex0H8esJp2T3BDwvE-54" value="" style="endArrow=classic;html=1;exitX=0;exitY=0.5;exitDx=0;exitDy=0;entryX=1;entryY=0.5;entryDx=0;entryDy=0;" parent="1" source="Xdjex0H8esJp2T3BDwvE-49" target="Xdjex0H8esJp2T3BDwvE-58" edge="1">
          <mxGeometry width="50" height="50" relative="1" as="geometry">
            <mxPoint x="295" y="540" as="sourcePoint" />
            <mxPoint x="305" y="525" as="targetPoint" />
          </mxGeometry>
        </mxCell>
        <mxCell id="Xdjex0H8esJp2T3BDwvE-55" value="No" style="text;html=1;strokeColor=none;fillColor=none;align=center;verticalAlign=middle;whiteSpace=wrap;rounded=0;glass=1;" parent="1" vertex="1">
          <mxGeometry x="315" y="500" width="40" height="20" as="geometry" />
        </mxCell>
        <mxCell id="Xdjex0H8esJp2T3BDwvE-57" value="" style="group" parent="1" vertex="1" connectable="0">
          <mxGeometry x="155" y="485" width="140" height="80" as="geometry" />
        </mxCell>
        <mxCell id="Xdjex0H8esJp2T3BDwvE-58" value="" style="rounded=0;whiteSpace=wrap;html=1;" parent="Xdjex0H8esJp2T3BDwvE-57" vertex="1">
          <mxGeometry width="140" height="80" as="geometry" />
        </mxCell>
        <mxCell id="Xdjex0H8esJp2T3BDwvE-59" value="Check for repeats" style="text;html=1;strokeColor=none;fillColor=none;align=center;verticalAlign=middle;whiteSpace=wrap;rounded=0;" parent="Xdjex0H8esJp2T3BDwvE-57" vertex="1">
          <mxGeometry x="50" y="30" width="40" height="20" as="geometry" />
        </mxCell>
        <mxCell id="Xdjex0H8esJp2T3BDwvE-61" value="" style="group" parent="1" vertex="1" connectable="0">
          <mxGeometry x="45" y="580" width="90" height="90" as="geometry" />
        </mxCell>
        <mxCell id="Xdjex0H8esJp2T3BDwvE-62" value="" style="rhombus;whiteSpace=wrap;html=1;rounded=1;glass=1;" parent="Xdjex0H8esJp2T3BDwvE-61" vertex="1">
          <mxGeometry width="90" height="90" as="geometry" />
        </mxCell>
        <mxCell id="Xdjex0H8esJp2T3BDwvE-63" value="Any repeats?" style="text;html=1;strokeColor=none;fillColor=none;align=center;verticalAlign=middle;whiteSpace=wrap;rounded=0;glass=1;" parent="Xdjex0H8esJp2T3BDwvE-61" vertex="1">
          <mxGeometry x="25" y="30" width="40" height="20" as="geometry" />
        </mxCell>
        <mxCell id="Xdjex0H8esJp2T3BDwvE-64" value="" style="endArrow=classic;html=1;exitX=0;exitY=0.5;exitDx=0;exitDy=0;entryX=0.5;entryY=0;entryDx=0;entryDy=0;" parent="1" source="Xdjex0H8esJp2T3BDwvE-58" target="Xdjex0H8esJp2T3BDwvE-62" edge="1">
          <mxGeometry width="50" height="50" relative="1" as="geometry">
            <mxPoint x="155" y="540" as="sourcePoint" />
            <mxPoint x="-2" y="564" as="targetPoint" />
            <Array as="points">
              <mxPoint x="90" y="525" />
            </Array>
          </mxGeometry>
        </mxCell>
        <mxCell id="Xdjex0H8esJp2T3BDwvE-67" value="Yes" style="text;html=1;strokeColor=none;fillColor=none;align=center;verticalAlign=middle;whiteSpace=wrap;rounded=0;glass=1;" parent="1" vertex="1">
          <mxGeometry x="15" y="600" width="40" height="20" as="geometry" />
        </mxCell>
        <mxCell id="Xdjex0H8esJp2T3BDwvE-68" value="" style="endArrow=classic;html=1;exitX=0.5;exitY=1;exitDx=0;exitDy=0;entryX=0;entryY=0.5;entryDx=0;entryDy=0;" parent="1" source="Xdjex0H8esJp2T3BDwvE-62" target="Xdjex0H8esJp2T3BDwvE-39" edge="1">
          <mxGeometry width="50" height="50" relative="1" as="geometry">
            <mxPoint x="65" y="680" as="sourcePoint" />
            <mxPoint x="90" y="830" as="targetPoint" />
            <Array as="points">
              <mxPoint x="80" y="910" />
            </Array>
          </mxGeometry>
        </mxCell>
        <mxCell id="Xdjex0H8esJp2T3BDwvE-73" value="No" style="text;html=1;strokeColor=none;fillColor=none;align=center;verticalAlign=middle;whiteSpace=wrap;rounded=0;glass=1;" parent="1" vertex="1">
          <mxGeometry x="85" y="670" width="40" height="20" as="geometry" />
        </mxCell>
        <mxCell id="Xdjex0H8esJp2T3BDwvE-74" value="" style="group" parent="1" vertex="1" connectable="0">
          <mxGeometry x="340" y="610" width="140" height="80" as="geometry" />
        </mxCell>
        <mxCell id="Xdjex0H8esJp2T3BDwvE-75" value="" style="rounded=0;whiteSpace=wrap;html=1;" parent="Xdjex0H8esJp2T3BDwvE-74" vertex="1">
          <mxGeometry width="140" height="80" as="geometry" />
        </mxCell>
        <mxCell id="Xdjex0H8esJp2T3BDwvE-76" value="Look for ShakeMap Output in S3" style="text;html=1;strokeColor=none;fillColor=none;align=center;verticalAlign=middle;whiteSpace=wrap;rounded=0;" parent="Xdjex0H8esJp2T3BDwvE-74" vertex="1">
          <mxGeometry x="50" y="30" width="40" height="20" as="geometry" />
        </mxCell>
        <mxCell id="Xdjex0H8esJp2T3BDwvE-77" value="" style="endArrow=classic;html=1;entryX=0.5;entryY=0;entryDx=0;entryDy=0;" parent="1" source="Xdjex0H8esJp2T3BDwvE-49" target="Xdjex0H8esJp2T3BDwvE-75" edge="1">
          <mxGeometry width="50" height="50" relative="1" as="geometry">
            <mxPoint x="410" y="590" as="sourcePoint" />
            <mxPoint x="409.5" y="600" as="targetPoint" />
          </mxGeometry>
        </mxCell>
        <mxCell id="Xdjex0H8esJp2T3BDwvE-78" value="" style="endArrow=classic;html=1;exitX=0.383;exitY=1.025;exitDx=0;exitDy=0;exitPerimeter=0;entryX=1;entryY=0.5;entryDx=0;entryDy=0;dashed=1;" parent="1" source="Xdjex0H8esJp2T3BDwvE-6" target="Xdjex0H8esJp2T3BDwvE-75" edge="1">
          <mxGeometry width="50" height="50" relative="1" as="geometry">
            <mxPoint x="454.01" y="449.99999999999994" as="sourcePoint" />
            <mxPoint x="615.99" y="530.96" as="targetPoint" />
            <Array as="points">
              <mxPoint x="528" y="650" />
            </Array>
          </mxGeometry>
        </mxCell>
        <mxCell id="Xdjex0H8esJp2T3BDwvE-79" value="" style="group" parent="1" vertex="1" connectable="0">
          <mxGeometry x="365" y="710" width="90" height="90" as="geometry" />
        </mxCell>
        <mxCell id="Xdjex0H8esJp2T3BDwvE-80" value="" style="rhombus;whiteSpace=wrap;html=1;rounded=1;glass=1;" parent="Xdjex0H8esJp2T3BDwvE-79" vertex="1">
          <mxGeometry width="90" height="90" as="geometry" />
        </mxCell>
        <mxCell id="Xdjex0H8esJp2T3BDwvE-81" value="Is event finished?" style="text;html=1;strokeColor=none;fillColor=none;align=center;verticalAlign=middle;whiteSpace=wrap;rounded=0;glass=1;" parent="Xdjex0H8esJp2T3BDwvE-79" vertex="1">
          <mxGeometry x="25" y="30" width="40" height="20" as="geometry" />
        </mxCell>
        <mxCell id="Xdjex0H8esJp2T3BDwvE-82" value="" style="endArrow=classic;html=1;entryX=0.5;entryY=0;entryDx=0;entryDy=0;exitX=0.5;exitY=1;exitDx=0;exitDy=0;" parent="1" source="Xdjex0H8esJp2T3BDwvE-75" target="Xdjex0H8esJp2T3BDwvE-80" edge="1">
          <mxGeometry width="50" height="50" relative="1" as="geometry">
            <mxPoint x="455" y="700" as="sourcePoint" />
            <mxPoint x="455" y="740" as="targetPoint" />
          </mxGeometry>
        </mxCell>
        <mxCell id="Xdjex0H8esJp2T3BDwvE-85" value="" style="endArrow=classic;html=1;entryX=0.517;entryY=1.025;entryDx=0;entryDy=0;entryPerimeter=0;exitX=0.5;exitY=0;exitDx=0;exitDy=0;dashed=1;" parent="1" source="Xdjex0H8esJp2T3BDwvE-87" target="GJgcs_XlC3L1bi6ihaC3-14" edge="1">
          <mxGeometry width="50" height="50" relative="1" as="geometry">
            <mxPoint x="583" y="710" as="sourcePoint" />
            <mxPoint x="582.5" y="830" as="targetPoint" />
            <Array as="points">
              <mxPoint x="570" y="560" />
              <mxPoint x="495" y="560" />
              <mxPoint x="495" y="440" />
              <mxPoint x="436" y="440" />
            </Array>
          </mxGeometry>
        </mxCell>
        <mxCell id="Xdjex0H8esJp2T3BDwvE-86" value="" style="group" parent="1" vertex="1" connectable="0">
          <mxGeometry x="500" y="720" width="140" height="80" as="geometry" />
        </mxCell>
        <mxCell id="Xdjex0H8esJp2T3BDwvE-87" value="" style="rounded=0;whiteSpace=wrap;html=1;" parent="Xdjex0H8esJp2T3BDwvE-86" vertex="1">
          <mxGeometry width="140" height="80" as="geometry" />
        </mxCell>
        <mxCell id="Xdjex0H8esJp2T3BDwvE-88" value="Remove running event from DB" style="text;html=1;strokeColor=none;fillColor=none;align=center;verticalAlign=middle;whiteSpace=wrap;rounded=0;" parent="Xdjex0H8esJp2T3BDwvE-86" vertex="1">
          <mxGeometry x="50" y="30" width="40" height="20" as="geometry" />
        </mxCell>
        <mxCell id="Xdjex0H8esJp2T3BDwvE-89" value="" style="endArrow=classic;html=1;exitX=1;exitY=0.5;exitDx=0;exitDy=0;entryX=0;entryY=0.5;entryDx=0;entryDy=0;" parent="1" source="Xdjex0H8esJp2T3BDwvE-80" target="Xdjex0H8esJp2T3BDwvE-87" edge="1">
          <mxGeometry width="50" height="50" relative="1" as="geometry">
            <mxPoint x="475" y="760" as="sourcePoint" />
            <mxPoint x="474" y="740" as="targetPoint" />
          </mxGeometry>
        </mxCell>
        <mxCell id="Xdjex0H8esJp2T3BDwvE-91" value="Yes" style="text;html=1;strokeColor=none;fillColor=none;align=center;verticalAlign=middle;whiteSpace=wrap;rounded=0;glass=1;" parent="1" vertex="1">
          <mxGeometry x="455" y="730" width="40" height="20" as="geometry" />
        </mxCell>
        <mxCell id="Xdjex0H8esJp2T3BDwvE-92" value="No" style="text;html=1;strokeColor=none;fillColor=none;align=center;verticalAlign=middle;whiteSpace=wrap;rounded=0;glass=1;" parent="1" vertex="1">
          <mxGeometry x="325" y="730" width="40" height="20" as="geometry" />
        </mxCell>
        <mxCell id="Xdjex0H8esJp2T3BDwvE-93" value="" style="endArrow=classic;html=1;exitX=0;exitY=0.5;exitDx=0;exitDy=0;entryX=0.5;entryY=1;entryDx=0;entryDy=0;" parent="1" target="Xdjex0H8esJp2T3BDwvE-45" edge="1">
          <mxGeometry width="50" height="50" relative="1" as="geometry">
            <mxPoint x="365" y="754.5" as="sourcePoint" />
            <mxPoint x="295" y="754.5" as="targetPoint" />
            <Array as="points">
              <mxPoint x="255" y="755" />
              <mxPoint x="255" y="700" />
              <mxPoint x="145" y="700" />
              <mxPoint x="145" y="460" />
              <mxPoint x="245" y="460" />
            </Array>
          </mxGeometry>
        </mxCell>
        <mxCell id="Xdjex0H8esJp2T3BDwvE-95" value="" style="endArrow=classic;html=1;exitX=0.5;exitY=1;exitDx=0;exitDy=0;" parent="1" source="Xdjex0H8esJp2T3BDwvE-87" edge="1">
          <mxGeometry width="50" height="50" relative="1" as="geometry">
            <mxPoint x="605" y="870" as="sourcePoint" />
            <mxPoint x="736" y="874" as="targetPoint" />
            <Array as="points">
              <mxPoint x="570" y="874" />
            </Array>
          </mxGeometry>
        </mxCell>
        <mxCell id="Xdjex0H8esJp2T3BDwvE-102" value="" style="group" parent="1" vertex="1" connectable="0">
          <mxGeometry x="20" y="1020" width="169" height="50" as="geometry" />
        </mxCell>
        <mxCell id="Xdjex0H8esJp2T3BDwvE-96" value="" style="endArrow=classic;html=1;dashed=1;" parent="Xdjex0H8esJp2T3BDwvE-102" edge="1">
          <mxGeometry width="50" height="50" relative="1" as="geometry">
            <mxPoint y="10" as="sourcePoint" />
            <mxPoint x="50" y="10" as="targetPoint" />
          </mxGeometry>
        </mxCell>
        <mxCell id="Xdjex0H8esJp2T3BDwvE-97" value="Database/file read/write" style="text;html=1;strokeColor=none;fillColor=none;align=center;verticalAlign=middle;whiteSpace=wrap;rounded=0;" parent="Xdjex0H8esJp2T3BDwvE-102" vertex="1">
          <mxGeometry x="59" width="110" height="20" as="geometry" />
        </mxCell>
        <mxCell id="Xdjex0H8esJp2T3BDwvE-98" value="" style="endArrow=classic;html=1;" parent="Xdjex0H8esJp2T3BDwvE-102" edge="1">
          <mxGeometry width="50" height="50" relative="1" as="geometry">
            <mxPoint y="40" as="sourcePoint" />
            <mxPoint x="50" y="40" as="targetPoint" />
          </mxGeometry>
        </mxCell>
        <mxCell id="Xdjex0H8esJp2T3BDwvE-99" value="Process flow" style="text;html=1;strokeColor=none;fillColor=none;align=center;verticalAlign=middle;whiteSpace=wrap;rounded=0;" parent="Xdjex0H8esJp2T3BDwvE-102" vertex="1">
          <mxGeometry x="59" y="30" width="110" height="20" as="geometry" />
        </mxCell>
        <mxCell id="1NO3vYuAgstss5tLDtMF-1" value="" style="group" vertex="1" connectable="0" parent="1">
          <mxGeometry x="20" y="160" width="120" height="80" as="geometry" />
        </mxCell>
        <mxCell id="1NO3vYuAgstss5tLDtMF-2" value="" style="ellipse;whiteSpace=wrap;html=1;rounded=1;glass=1;" vertex="1" parent="1NO3vYuAgstss5tLDtMF-1">
          <mxGeometry width="120" height="80" as="geometry" />
        </mxCell>
        <mxCell id="1NO3vYuAgstss5tLDtMF-3" value="Timed Cloudwatch Event" style="text;html=1;strokeColor=none;fillColor=none;align=center;verticalAlign=middle;whiteSpace=wrap;rounded=0;glass=1;" vertex="1" parent="1NO3vYuAgstss5tLDtMF-1">
          <mxGeometry x="40" y="30" width="40" height="20" as="geometry" />
        </mxCell>
        <mxCell id="1NO3vYuAgstss5tLDtMF-4" value="" style="group" vertex="1" connectable="0" parent="1">
          <mxGeometry x="680" y="40" width="120" height="80" as="geometry" />
        </mxCell>
        <mxCell id="1NO3vYuAgstss5tLDtMF-5" value="" style="ellipse;whiteSpace=wrap;html=1;rounded=1;glass=1;" vertex="1" parent="1NO3vYuAgstss5tLDtMF-4">
          <mxGeometry width="120" height="80" as="geometry" />
        </mxCell>
        <mxCell id="1NO3vYuAgstss5tLDtMF-6" value="End" style="text;html=1;strokeColor=none;fillColor=none;align=center;verticalAlign=middle;whiteSpace=wrap;rounded=0;glass=1;" vertex="1" parent="1NO3vYuAgstss5tLDtMF-4">
          <mxGeometry x="40" y="30" width="40" height="20" as="geometry" />
        </mxCell>
        <mxCell id="1NO3vYuAgstss5tLDtMF-7" value="" style="endArrow=classic;html=1;exitX=1;exitY=0.5;exitDx=0;exitDy=0;entryX=0;entryY=0.5;entryDx=0;entryDy=0;" edge="1" parent="1" source="1NO3vYuAgstss5tLDtMF-2" target="1NO3vYuAgstss5tLDtMF-9">
          <mxGeometry width="50" height="50" relative="1" as="geometry">
            <mxPoint x="149" y="199.5" as="sourcePoint" />
            <mxPoint x="189" y="199.5" as="targetPoint" />
          </mxGeometry>
        </mxCell>
        <mxCell id="1NO3vYuAgstss5tLDtMF-8" value="" style="group" vertex="1" connectable="0" parent="1">
          <mxGeometry x="195" y="160" width="140" height="80" as="geometry" />
        </mxCell>
        <mxCell id="1NO3vYuAgstss5tLDtMF-9" value="" style="rounded=0;whiteSpace=wrap;html=1;" vertex="1" parent="1NO3vYuAgstss5tLDtMF-8">
          <mxGeometry width="140" height="80" as="geometry" />
        </mxCell>
        <mxCell id="1NO3vYuAgstss5tLDtMF-10" value="Look for events to run" style="text;html=1;strokeColor=none;fillColor=none;align=center;verticalAlign=middle;whiteSpace=wrap;rounded=0;" vertex="1" parent="1NO3vYuAgstss5tLDtMF-8">
          <mxGeometry x="50" y="30" width="40" height="20" as="geometry" />
        </mxCell>
        <mxCell id="1NO3vYuAgstss5tLDtMF-11" value="" style="endArrow=classic;html=1;exitX=0.017;exitY=0.175;exitDx=0;exitDy=0;dashed=1;entryX=0.5;entryY=1;entryDx=0;entryDy=0;exitPerimeter=0;" edge="1" parent="1" source="GJgcs_XlC3L1bi6ihaC3-14" target="1NO3vYuAgstss5tLDtMF-9">
          <mxGeometry width="50" height="50" relative="1" as="geometry">
            <mxPoint x="504" y="130" as="sourcePoint" />
            <mxPoint x="504" y="310" as="targetPoint" />
            <Array as="points">
              <mxPoint x="265" y="314" />
            </Array>
          </mxGeometry>
        </mxCell>
        <mxCell id="1NO3vYuAgstss5tLDtMF-12" value="" style="group" vertex="1" connectable="0" parent="1">
          <mxGeometry x="365" y="160" width="140" height="80" as="geometry" />
        </mxCell>
        <mxCell id="1NO3vYuAgstss5tLDtMF-13" value="" style="rounded=0;whiteSpace=wrap;html=1;" vertex="1" parent="1NO3vYuAgstss5tLDtMF-12">
          <mxGeometry width="140" height="80" as="geometry" />
        </mxCell>
        <mxCell id="1NO3vYuAgstss5tLDtMF-14" value="Write event into running table" style="text;html=1;strokeColor=none;fillColor=none;align=center;verticalAlign=middle;whiteSpace=wrap;rounded=0;" vertex="1" parent="1NO3vYuAgstss5tLDtMF-12">
          <mxGeometry x="50" y="30" width="40" height="20" as="geometry" />
        </mxCell>
        <mxCell id="1NO3vYuAgstss5tLDtMF-15" value="" style="endArrow=classic;html=1;exitX=1;exitY=0.5;exitDx=0;exitDy=0;entryX=0;entryY=0.5;entryDx=0;entryDy=0;" edge="1" parent="1" target="1NO3vYuAgstss5tLDtMF-13" source="1NO3vYuAgstss5tLDtMF-9">
          <mxGeometry width="50" height="50" relative="1" as="geometry">
            <mxPoint x="350" y="200" as="sourcePoint" />
            <mxPoint x="380" y="200" as="targetPoint" />
          </mxGeometry>
        </mxCell>
        <mxCell id="1NO3vYuAgstss5tLDtMF-18" value="" style="endArrow=classic;html=1;exitX=1;exitY=0.5;exitDx=0;exitDy=0;entryX=0;entryY=0.5;entryDx=0;entryDy=0;" edge="1" parent="1" source="1NO3vYuAgstss5tLDtMF-13" target="Xdjex0H8esJp2T3BDwvE-3">
          <mxGeometry width="50" height="50" relative="1" as="geometry">
            <mxPoint x="515" y="199.5" as="sourcePoint" />
            <mxPoint x="590" y="199.5" as="targetPoint" />
          </mxGeometry>
        </mxCell>
        <mxCell id="1NO3vYuAgstss5tLDtMF-19" value="" style="endArrow=classic;html=1;exitX=0.75;exitY=1;exitDx=0;exitDy=0;entryX=0.25;entryY=0;entryDx=0;entryDy=0;" edge="1" parent="1" source="Xdjex0H8esJp2T3BDwvE-67" target="1NO3vYuAgstss5tLDtMF-13">
          <mxGeometry width="50" height="50" relative="1" as="geometry">
            <mxPoint x="15" y="640" as="sourcePoint" />
            <mxPoint x="425" y="156" as="targetPoint" />
            <Array as="points">
              <mxPoint x="10" y="620" />
              <mxPoint x="10" y="260" />
              <mxPoint x="10" y="140" />
              <mxPoint x="400" y="140" />
            </Array>
          </mxGeometry>
        </mxCell>
        <mxCell id="1NO3vYuAgstss5tLDtMF-21" value="" style="group" vertex="1" connectable="0" parent="1">
          <mxGeometry x="360" y="36" width="90" height="90" as="geometry" />
        </mxCell>
        <mxCell id="1NO3vYuAgstss5tLDtMF-22" value="" style="rhombus;whiteSpace=wrap;html=1;rounded=1;glass=1;" vertex="1" parent="1NO3vYuAgstss5tLDtMF-21">
          <mxGeometry width="90" height="90" as="geometry" />
        </mxCell>
        <mxCell id="1NO3vYuAgstss5tLDtMF-23" value="Is event worth running?" style="text;html=1;strokeColor=none;fillColor=none;align=center;verticalAlign=middle;whiteSpace=wrap;rounded=0;glass=1;" vertex="1" parent="1NO3vYuAgstss5tLDtMF-21">
          <mxGeometry x="25" y="30" width="40" height="20" as="geometry" />
        </mxCell>
        <mxCell id="1NO3vYuAgstss5tLDtMF-24" value="" style="endArrow=classic;html=1;exitX=1;exitY=0.5;exitDx=0;exitDy=0;entryX=0;entryY=0.5;entryDx=0;entryDy=0;" edge="1" parent="1" source="GJgcs_XlC3L1bi6ihaC3-4" target="1NO3vYuAgstss5tLDtMF-22">
          <mxGeometry width="50" height="50" relative="1" as="geometry">
            <mxPoint x="340" y="84.5" as="sourcePoint" />
            <mxPoint x="350" y="90" as="targetPoint" />
          </mxGeometry>
        </mxCell>
        <mxCell id="1NO3vYuAgstss5tLDtMF-25" value="" style="endArrow=classic;html=1;exitX=1;exitY=0.5;exitDx=0;exitDy=0;entryX=0;entryY=0.5;entryDx=0;entryDy=0;" edge="1" parent="1" source="1NO3vYuAgstss5tLDtMF-22" target="GJgcs_XlC3L1bi6ihaC3-10">
          <mxGeometry width="50" height="50" relative="1" as="geometry">
            <mxPoint x="455" y="70" as="sourcePoint" />
            <mxPoint x="490" y="71" as="targetPoint" />
          </mxGeometry>
        </mxCell>
        <mxCell id="1NO3vYuAgstss5tLDtMF-26" value="Yes" style="text;html=1;strokeColor=none;fillColor=none;align=center;verticalAlign=middle;whiteSpace=wrap;rounded=0;glass=1;" vertex="1" parent="1">
          <mxGeometry x="405" y="570" width="40" height="20" as="geometry" />
        </mxCell>
        <mxCell id="1NO3vYuAgstss5tLDtMF-27" value="Yes" style="text;html=1;strokeColor=none;fillColor=none;align=center;verticalAlign=middle;whiteSpace=wrap;rounded=0;glass=1;" vertex="1" parent="1">
          <mxGeometry x="440" y="60" width="40" height="20" as="geometry" />
        </mxCell>
        <mxCell id="1NO3vYuAgstss5tLDtMF-28" value="" style="endArrow=classic;html=1;exitX=0.5;exitY=0;exitDx=0;exitDy=0;entryX=0.5;entryY=0;entryDx=0;entryDy=0;" edge="1" parent="1" source="1NO3vYuAgstss5tLDtMF-22" target="1NO3vYuAgstss5tLDtMF-5">
          <mxGeometry width="50" height="50" relative="1" as="geometry">
            <mxPoint x="405" y="10" as="sourcePoint" />
            <mxPoint x="750" y="30" as="targetPoint" />
            <Array as="points">
              <mxPoint x="405" y="10" />
              <mxPoint x="740" y="10" />
            </Array>
          </mxGeometry>
        </mxCell>
        <mxCell id="1NO3vYuAgstss5tLDtMF-29" value="No" style="text;html=1;strokeColor=none;fillColor=none;align=center;verticalAlign=middle;whiteSpace=wrap;rounded=0;glass=1;" vertex="1" parent="1">
          <mxGeometry x="400" y="16" width="40" height="20" as="geometry" />
        </mxCell>
        <mxCell id="1NO3vYuAgstss5tLDtMF-30" value="" style="endArrow=classic;html=1;exitX=0.5;exitY=1;exitDx=0;exitDy=0;entryX=0.517;entryY=-0.012;entryDx=0;entryDy=0;entryPerimeter=0;dashed=1;" edge="1" parent="1" source="1NO3vYuAgstss5tLDtMF-13" target="GJgcs_XlC3L1bi6ihaC3-14">
          <mxGeometry width="50" height="50" relative="1" as="geometry">
            <mxPoint x="400" y="400" as="sourcePoint" />
            <mxPoint x="450" y="350" as="targetPoint" />
          </mxGeometry>
        </mxCell>
        <mxCell id="1NO3vYuAgstss5tLDtMF-32" value="" style="endArrow=classic;html=1;dashed=1;exitX=0;exitY=0.5;exitDx=0;exitDy=0;entryX=0.917;entryY=1;entryDx=0;entryDy=0;entryPerimeter=0;" edge="1" parent="1" source="1NO3vYuAgstss5tLDtMF-34" target="GJgcs_XlC3L1bi6ihaC3-14">
          <mxGeometry width="50" height="50" relative="1" as="geometry">
            <mxPoint x="630" y="620" as="sourcePoint" />
            <mxPoint x="510" y="500" as="targetPoint" />
            <Array as="points">
              <mxPoint x="660" y="805" />
              <mxPoint x="660" y="500" />
              <mxPoint x="510" y="500" />
              <mxPoint x="510" y="430" />
              <mxPoint x="460" y="430" />
            </Array>
          </mxGeometry>
        </mxCell>
        <mxCell id="1NO3vYuAgstss5tLDtMF-33" value="" style="group;rounded=1;glass=1;" vertex="1" connectable="0" parent="1">
          <mxGeometry x="695" y="765" width="140" height="80" as="geometry" />
        </mxCell>
        <mxCell id="1NO3vYuAgstss5tLDtMF-37" value="" style="group" vertex="1" connectable="0" parent="1NO3vYuAgstss5tLDtMF-33">
          <mxGeometry width="140" height="80" as="geometry" />
        </mxCell>
        <mxCell id="1NO3vYuAgstss5tLDtMF-34" value="" style="rounded=0;whiteSpace=wrap;html=1;" vertex="1" parent="1NO3vYuAgstss5tLDtMF-37">
          <mxGeometry width="140" height="80" as="geometry" />
        </mxCell>
        <mxCell id="1NO3vYuAgstss5tLDtMF-35" value="Mark event run as sucessful" style="text;html=1;strokeColor=none;fillColor=none;align=center;verticalAlign=middle;whiteSpace=wrap;rounded=0;" vertex="1" parent="1NO3vYuAgstss5tLDtMF-37">
          <mxGeometry x="50" y="35" width="40" height="20" as="geometry" />
        </mxCell>
      </root>
    </mxGraphModel>
  </diagram>
</mxfile>
